<?xml version="1.0" encoding="UTF-8" standalone="no"?>
<svg
   xmlns:dc="http://purl.org/dc/elements/1.1/"
   xmlns:cc="http://creativecommons.org/ns#"
   xmlns:rdf="http://www.w3.org/1999/02/22-rdf-syntax-ns#"
   xmlns:svg="http://www.w3.org/2000/svg"
   xmlns="http://www.w3.org/2000/svg"
   xmlns:sodipodi="http://sodipodi.sourceforge.net/DTD/sodipodi-0.dtd"
   xmlns:inkscape="http://www.inkscape.org/namespaces/inkscape"
   height="24"
   style="clip-rule:evenodd;fill-rule:evenodd;image-rendering:optimizeQuality;shape-rendering:geometricPrecision;text-rendering:geometricPrecision"
   viewBox="0 0 0.24999999 0.24999999"
   width="24"
   xml:space="preserve"
   version="1.1"
   id="svg13"
   sodipodi:docname="swipe-up-down.svg"
   inkscape:version="0.92.3 (2405546, 2018-03-11)"><metadata
     id="metadata17"><rdf:RDF><cc:Work
         rdf:about=""><dc:format>image/svg+xml</dc:format><dc:type
           rdf:resource="http://purl.org/dc/dcmitype/StillImage" /><dc:title></dc:title></cc:Work></rdf:RDF></metadata><sodipodi:namedview
     pagecolor="#ffffff"
     bordercolor="#666666"
     borderopacity="1"
     objecttolerance="10"
     gridtolerance="10"
     guidetolerance="10"
     inkscape:pageopacity="0"
     inkscape:pageshadow="2"
     inkscape:window-width="1619"
     inkscape:window-height="995"
     id="namedview15"
     showgrid="false"
     inkscape:zoom="16.296617"
     inkscape:cx="4.8583039"
     inkscape:cy="3.2855619"
     inkscape:window-x="61"
     inkscape:window-y="27"
     inkscape:window-maximized="1"
     inkscape:current-layer="svg13"
     units="px" /><defs
     id="defs4"><style
       type="text/css"
       id="style2">
   <![CDATA[
    .fil1 {fill:none}
    .fil0 {fill:#0A93E2;fill-rule:nonzero}
   ]]>
  </style></defs><g
     transform="matrix(0.00553149,-0.00216758,0.00231649,0.00661596,0.01816948,0.07506516)"
     style="fill:none;fill-rule:evenodd;stroke:#86888f;stroke-width:1.64537924;stroke-opacity:1;stroke-miterlimit:4;stroke-dasharray:none"
     id="Page-1"><g
       style="fill:#929292;stroke:#86888f;stroke-opacity:1;stroke-width:1.64537924;stroke-miterlimit:4;stroke-dasharray:none"
       id="icon-22-one-finger"><path
         inkscape:connector-curvature="0"
         d="M 19.797751,28.064619 C 23.940583,28.064619 27,27.499031 27,23.584256 c 0,0 0,2.313244 0,0 v -3.750838 -2.247486 c 0,-0.829353 -0.665797,-1.501676 -1.5,-1.501676 -0.828427,0 -1.5,0.671189 -1.5,1.501676 v 0.498324 h -1 v -2.493561 c 0,-0.831983 -0.665797,-1.506439 -1.5,-1.506439 -0.828427,0 -1.5,0.671541 -1.5,1.506439 v 1.493561 h -1 v -2.493561 c 0,-0.831983 -0.665797,-1.506439 -1.5,-1.506439 -0.828427,0 -1.5,0.671541 -1.5,1.506439 v 3.493561 H 15 V 7.5894975 c 0,-0.8313218 -0.665797,-1.5052412 -1.5,-1.5052412 -0.828427,0 -1.5,0.6671298 -1.5,1.5052412 V 18.884244 C 9.9416004,16.683823 7.2316298,14.263377 6.1210327,15.379971 5.0338629,16.473012 7.835362,19.484978 11.747376,26.06735 c 1.76262,2.965794 4.291921,1.996811 8.050375,1.997269 z M 28,23.584256 c 0,4.694421 -3.171195,5.373616 -7.865616,5.373616 -3.112915,0 -7.032577,1.67387 -9.293564,-2.445393 C 7.5773317,20.566772 3.4038529,16.667464 5.3911133,14.680203 6.8127624,13.258554 9.0448416,14.622423 11,16.451043 v 0 -8.8583781 c 0,-1.3929911 1.119288,-2.5084086 2.5,-2.5084086 1.390338,0 2.5,1.1230528 2.5,2.5084086 v 4.9899561 c 0.41783,-0.31306 0.937197,-0.498365 1.5,-0.498365 1.082518,0 1.994885,0.677467 2.345817,1.628124 0.440776,-0.390135 1.019894,-0.628124 1.654183,-0.628124 1.390338,0 2.5,1.118226 2.5,2.497627 v 0.01346 c 0.41783,-0.312572 0.937197,-0.496897 1.5,-0.496897 1.390338,0 2.5,1.119345 2.5,2.500126 z"
         id="one-finger"
         style="stroke:#86888f;stroke-opacity:1;stroke-width:1.64537924;stroke-miterlimit:4;stroke-dasharray:none"
         sodipodi:nodetypes="ccscsssccsssccsssccssscsscssssccssscscsscsss" /></g></g><g
     id="g884"
     transform="matrix(0.04119826,0,0,0.04241061,-0.17882617,0.02127692)"
     style="stroke:#86888f;stroke-width:0.24596267;stroke-miterlimit:4;stroke-dasharray:none;stroke-opacity:1"><g
       transform="matrix(-0.39535868,0,0,-0.39535868,6.7505434,2.0363251)"
       id="Layer_x0020_1-3"
       style="clip-rule:evenodd;fill:#999999;fill-rule:evenodd;stroke:#86888f;stroke-width:0.62212539;stroke-miterlimit:4;stroke-dasharray:none;stroke-opacity:1;image-rendering:optimizeQuality;shape-rendering:geometricPrecision;text-rendering:geometricPrecision"><path
         style="fill:#999999;fill-rule:nonzero;stroke:#86888f;stroke-width:0.62212539;stroke-miterlimit:4;stroke-dasharray:none;stroke-opacity:1"
         inkscape:connector-curvature="0"
         id="path6-6"
         d="M 3.62667,1.06666 C 3.62667,0.948841 3.5311543,0.853325 3.413335,0.853325 3.295516,0.853325 3.2,0.9488407 3.2,1.06666 V 5.76 c 0,0.117819 0.095516,0.213335 0.213335,0.213335 0.117819,0 0.213335,-0.095516 0.213335,-0.213335 z"
         class="fil0" /><path
         style="fill:#999999;fill-rule:nonzero;stroke:#86888f;stroke-width:0.62212539;stroke-miterlimit:4;stroke-dasharray:none;stroke-opacity:1"
         inkscape:connector-curvature="0"
         id="path8-7"
         d="m 2.03129,4.07629 c -0.083303,-0.083303 -0.218366,-0.083303 -0.301669,0 -0.083303,0.083303 -0.083303,0.218366 0,0.301669 l 1.53288,1.53287 -1.57e-5,1.57e-5 c 0.083311,0.083311 0.21839,0.083311 0.301701,0 l 0.00123,-0.00126 1.53163,-1.53163 c 0.083303,-0.083303 0.083303,-0.218366 0,-0.301669 -0.083303,-0.083303 -0.218366,-0.083303 -0.301669,0 l -1.38204,1.38204 -1.38204,-1.38204 z"
         class="fil0" /></g><g
       transform="matrix(0.39535869,0,0,0.39535867,4.0461548,0.41133896)"
       id="Layer_x0020_1-3-5"
       style="clip-rule:evenodd;fill:#999999;fill-rule:evenodd;stroke:#86888f;stroke-width:0.62212539;stroke-miterlimit:4;stroke-dasharray:none;stroke-opacity:1;image-rendering:optimizeQuality;shape-rendering:geometricPrecision;text-rendering:geometricPrecision"><path
         style="fill:#999999;fill-rule:nonzero;stroke:#86888f;stroke-width:0.62212539;stroke-miterlimit:4;stroke-dasharray:none;stroke-opacity:1"
         inkscape:connector-curvature="0"
         id="path6-6-3"
         d="M 3.62667,1.06666 C 3.62667,0.948841 3.5311543,0.853325 3.413335,0.853325 3.295516,0.853325 3.2,0.9488407 3.2,1.06666 V 5.76 c 0,0.117819 0.095516,0.213335 0.213335,0.213335 0.117819,0 0.213335,-0.095516 0.213335,-0.213335 z"
         class="fil0" /><path
         style="fill:#999999;fill-rule:nonzero;stroke:#86888f;stroke-width:0.62212539;stroke-miterlimit:4;stroke-dasharray:none;stroke-opacity:1"
         inkscape:connector-curvature="0"
         id="path8-7-5"
         d="m 2.03129,4.07629 c -0.083303,-0.083303 -0.218366,-0.083303 -0.301669,0 -0.083303,0.083303 -0.083303,0.218366 0,0.301669 l 1.53288,1.53287 -1.57e-5,1.57e-5 c 0.083311,0.083311 0.21839,0.083311 0.301701,0 l 0.00123,-0.00126 1.53163,-1.53163 c 0.083303,-0.083303 0.083303,-0.218366 0,-0.301669 -0.083303,-0.083303 -0.218366,-0.083303 -0.301669,0 l -1.38204,1.38204 -1.38204,-1.38204 z"
         class="fil0" /></g></g></svg>